# xmcd
#
# Track frame offsets: 
#        183
#        19223
#        35625
#        48373
#        61608
#        81913
#        96888
#        109650
#        123160
#        140638
#        150183
#        159148
#        171198
#        185840
#        199230
#        227723
#        246605
#        274960
#        288543
#        301418
#
# Disc length: 4173 seconds
#
# Revision: 2
# Processed by: cddbd v1.5.2PL0 Copyright (c) Steve Scherf et al.
# Submitted via: ExactAudioCopy v0.99pb4
#
DISCID=19104b14
DTITLE=Ray Charles - I Cant`t Stop Loving You
DYEAR=1989
DGENRE=R&B
TTITLE0=I Can't Stop Loving You
TTITLE1=Georgia On My Mind
TTITLE2=Yesterday
TTITLE3=Take These Chains From My Heart
TTITLE4=What'd I Say
TTITLE5=We Go Again
TTITLE6=Unchain My Heart
TTITLE7=Eleanor Rigby
TTITLE8=Ruby
TTITLE9=Busted
TTITLE10=Hit The Road, Jack
TTITLE11=Together Again
TTITLE12=Born To Lose
TTITLE13=Crying Time
TTITLE14=I Got A Woman
TTITLE15=Baby It's Cold Outside
TTITLE16=Makin' Whoopee
TTITLE17=Let's Go Get Stoned
TTITLE18=Makin' Believe
TTITLE19=Don't Set Me Free
EXTD=Ian Baker
EXTT0=
EXTT1=
EXTT2=
EXTT3=
EXTT4=
EXTT5=
EXTT6=
EXTT7=
EXTT8=
EXTT9=
EXTT10=
EXTT11=
EXTT12=
EXTT13=
EXTT14=
EXTT15=
EXTT16=
EXTT17=
EXTT18=
EXTT19=
PLAYORDER=
